<svg width="22" height="22" viewBox="0 0 22 22" fill="none" xmlns="http://www.w3.org/2000/svg">
<g id="Language icon" clip-path="url(#clip0_32_113727)">
<path id="Vector" d="M11 0C8.82441 0 6.69767 0.645139 4.88873 1.85383C3.07979 3.06253 1.66989 4.78049 0.83733 6.79048C0.0047661 8.80047 -0.213071 11.0122 0.211367 13.146C0.635804 15.2798 1.68345 17.2398 3.22183 18.7782C4.76021 20.3166 6.72022 21.3642 8.85401 21.7886C10.9878 22.2131 13.1995 21.9952 15.2095 21.1627C17.2195 20.3301 18.9375 18.9202 20.1462 17.1113C21.3549 15.3023 22 13.1756 22 11C22 8.08262 20.8411 5.28473 18.7782 3.22183C16.7153 1.15893 13.9174 0 11 0ZM20.4484 10.2416H16.3147C16.2105 6.80842 15.4116 3.87316 14.19 2.07263C15.908 2.68873 17.4119 3.78692 18.5219 5.2357C19.6318 6.68449 20.3007 8.42247 20.4484 10.2416ZM11 20.4832C9.26316 20.4832 7.38158 16.94 7.2079 11.7584H14.7921C14.6184 16.94 12.7368 20.4832 11 20.4832ZM7.2079 10.2416C7.38158 5.06579 9.26316 1.51684 11 1.51684C12.7368 1.51684 14.6184 5.06579 14.7921 10.2416H7.2079ZM7.81579 2.07263C6.58843 3.90211 5.78948 6.80842 5.69106 10.2416H1.55158C1.69976 8.4218 2.36949 6.68333 3.48052 5.23447C4.59155 3.78562 6.09675 2.68783 7.81579 2.07263ZM1.55158 11.7584H5.69106C5.79527 15.1916 6.58843 18.1268 7.81579 19.9332C6.09669 19.3163 4.59168 18.2173 3.48077 16.7676C2.36986 15.3178 1.7001 13.5788 1.55158 11.7584ZM14.19 19.9332C15.4116 18.1037 16.2105 15.1916 16.3147 11.7584H20.4484C20.2997 13.5779 19.6305 15.3162 18.5208 16.7657C17.411 18.2152 15.9076 19.3148 14.19 19.9332Z" fill="black"/>
</g>
<defs>
<clipPath id="clip0_32_113727">
<rect width="22" height="22" fill="white"/>
</clipPath>
</defs>
</svg>
